<?xml version="1.0" encoding="utf-8"?>
<!-- Generator: Adobe Illustrator 23.1.0, SVG Export Plug-In . SVG Version: 6.00 Build 0)  -->
<svg version="1.1" id="圖層_1" xmlns="http://www.w3.org/2000/svg" xmlns:xlink="http://www.w3.org/1999/xlink" x="0px" y="0px"
	 viewBox="0 0 50 50" style="enable-background:new 0 0 50 50;" xml:space="preserve">
<style type="text/css">
	.st0{fill:url(#SVGID_1_);stroke:#7C705A;stroke-width:0.5;stroke-miterlimit:10;}
	.st1{fill:url(#SVGID_2_);stroke:#7C705A;stroke-width:0.5;stroke-miterlimit:10;}
	.st2{fill:#FFFFFF;}
</style>
<g>
	<linearGradient id="SVGID_1_" gradientUnits="userSpaceOnUse" x1="1.567" y1="25.4236" x2="47.8857" y2="25.4236">
		<stop  offset="0.0698" style="stop-color:#9D8B76"/>
		<stop  offset="0.243" style="stop-color:#908269"/>
		<stop  offset="0.4441" style="stop-color:#8E8268"/>
		<stop  offset="0.6006" style="stop-color:#8B7966"/>
		<stop  offset="0.9134" style="stop-color:#7F7162"/>
	</linearGradient>
	<circle class="st0" cx="24.73" cy="25.42" r="23.16"/>
	<linearGradient id="SVGID_2_" gradientUnits="userSpaceOnUse" x1="24.9185" y1="46.1582" x2="25.2018" y2="-0.1597">
		<stop  offset="0.0698" style="stop-color:#9D8B76"/>
		<stop  offset="0.3288" style="stop-color:#908269"/>
		<stop  offset="0.395" style="stop-color:#8E8268"/>
		<stop  offset="0.5653" style="stop-color:#8B7966"/>
		<stop  offset="0.8681" style="stop-color:#7F7162"/>
	</linearGradient>
	<circle class="st1" cx="25.05" cy="24.05" r="23.16"/>
</g>
<g>
	<path class="st2" d="M21.23,27.49L21.23,27.49c0-0.97,0.08-0.52-5.08-10.85c-1.05-2.11-4.08-2.11-5.13,0
		c-5.21,10.42-5.08,9.91-5.08,10.85h0c0,2.64,3.43,4.78,7.65,4.78S21.23,30.13,21.23,27.49z M13.58,17.92l4.3,8.61H9.28L13.58,17.92
		z M44.18,27.49c0-0.97,0.08-0.52-5.08-10.85c-1.05-2.11-4.08-2.11-5.13,0c-5.21,10.42-5.08,9.91-5.08,10.85h0
		c0,2.64,3.43,4.78,7.65,4.78S44.18,30.13,44.18,27.49L44.18,27.49z M32.23,26.53l4.3-8.61l4.3,8.61H32.23z M37.49,34.18H26.97
		V16.56c1.41-0.62,2.46-1.88,2.77-3.42h7.75c0.53,0,0.96-0.43,0.96-0.96v-1.91c0-0.53-0.43-0.96-0.96-0.96h-8.63
		c-0.87-1.15-2.24-1.91-3.8-1.91s-2.93,0.76-3.8,1.91h-8.63c-0.53,0-0.96,0.43-0.96,0.96v1.91c0,0.53,0.43,0.96,0.96,0.96h7.75
		c0.31,1.54,1.37,2.81,2.77,3.42v17.62H12.62c-0.53,0-0.96,0.43-0.96,0.96v1.91c0,0.53,0.43,0.96,0.96,0.96h24.86
		c0.53,0,0.96-0.43,0.96-0.96v-1.91C38.44,34.61,38.01,34.18,37.49,34.18z"/>
</g>
</svg>
