<?xml version="1.0" encoding="utf-8"?>
<!-- Generator: Adobe Illustrator 23.1.0, SVG Export Plug-In . SVG Version: 6.00 Build 0)  -->
<svg version="1.1" id="圖層_1" xmlns="http://www.w3.org/2000/svg" xmlns:xlink="http://www.w3.org/1999/xlink" x="0px" y="0px"
	 viewBox="0 0 50 50" style="enable-background:new 0 0 50 50;" xml:space="preserve">
<style type="text/css">
	.st0{fill:url(#SVGID_1_);stroke:#7C705A;stroke-width:0.5;stroke-miterlimit:10;}
	.st1{fill:url(#SVGID_2_);stroke:#7C705A;stroke-width:0.5;stroke-miterlimit:10;}
	.st2{fill:#FFFFFF;}
</style>
<linearGradient id="SVGID_1_" gradientUnits="userSpaceOnUse" x1="2.3013" y1="25.5363" x2="48.62" y2="25.5363">
	<stop  offset="0.0698" style="stop-color:#9D8B76"/>
	<stop  offset="0.243" style="stop-color:#908269"/>
	<stop  offset="0.4441" style="stop-color:#8E8268"/>
	<stop  offset="0.6006" style="stop-color:#8B7966"/>
	<stop  offset="0.9134" style="stop-color:#7F7162"/>
</linearGradient>
<circle class="st0" cx="25.46" cy="25.54" r="23.16"/>
<linearGradient id="SVGID_2_" gradientUnits="userSpaceOnUse" x1="25.6528" y1="46.2709" x2="25.9361" y2="-0.047">
	<stop  offset="0.0698" style="stop-color:#9D8B76"/>
	<stop  offset="0.3288" style="stop-color:#908269"/>
	<stop  offset="0.395" style="stop-color:#8E8268"/>
	<stop  offset="0.5653" style="stop-color:#8B7966"/>
	<stop  offset="0.8681" style="stop-color:#7F7162"/>
</linearGradient>
<circle class="st1" cx="25.79" cy="24.16" r="23.16"/>
<g>
	<path class="st2" d="M33.42,14.49c-2.12,0-4.09,0.34-5.82,0.97l0.94-9.3c0.08-0.79-0.61-1.43-1.4-1.33
		c-6.02,0.76-10.68,5.86-10.68,12.03c0,2.12,0.34,4.09,0.97,5.82l-9.3-0.94c-0.79-0.08-1.43,0.61-1.33,1.4
		c0.76,6.02,5.86,10.68,12.03,10.68c2.12,0,4.09-0.34,5.82-0.97l-0.94,9.3c-0.08,0.79,0.61,1.43,1.4,1.33
		c6.02-0.76,10.68-5.86,10.68-12.03c0-2.12-0.34-4.09-0.97-5.82l9.3,0.94c0.79,0.08,1.43-0.61,1.33-1.4
		C44.69,19.15,39.59,14.49,33.42,14.49L33.42,14.49z M26.12,26.58c-1.34,0-2.42-1.08-2.42-2.42s1.08-2.42,2.42-2.42
		s2.42,1.08,2.42,2.42S27.46,26.58,26.12,26.58z"/>
</g>
</svg>
